<svg width="348" height="104" viewBox="0 0 348 104" fill="none" xmlns="http://www.w3.org/2000/svg">
<path d="M0 10C0 4.47715 4.47715 0 10 0H338C343.523 0 348 4.47715 348 10V94C348 99.5229 343.523 104 338 104H10C4.47715 104 0 99.5229 0 94V10Z" fill="#1B1C21"/>
<path d="M43.294 65.676L47.82 64.436V40.814C47.82 39.7393 47.7373 39.0367 47.572 38.706C47.4067 38.334 46.9727 38.0033 46.27 37.714L43.046 35.916L43.418 30.832C49.618 29.9227 55.5907 29.468 61.336 29.468C65.8 29.468 69.396 29.9227 72.124 30.832C74.852 31.7 76.836 33.0847 78.076 34.986C79.3573 36.846 79.998 39.326 79.998 42.426C79.998 44.9887 79.3367 47.2413 78.014 49.184C76.6913 51.0853 74.8107 52.5527 72.372 53.586L82.292 69.582L82.23 72H70.946L61.77 55.446L59.042 55.384V62.328C59.042 63.32 59.104 63.9607 59.228 64.25C59.3933 64.498 59.7653 64.7873 60.344 65.118L63.01 66.668L62.762 72H43.604L43.294 65.676ZM63.01 48.44C65.2007 48.44 66.8127 48.2333 67.846 47.82C68.2593 46.332 68.466 44.5547 68.466 42.488C68.466 40.4213 68.0113 38.954 67.102 38.086C66.234 37.218 64.7667 36.784 62.7 36.784C61.5427 36.784 60.3647 36.846 59.166 36.97V48.068C60.2407 48.316 61.522 48.44 63.01 48.44Z" fill="#41E170"/>
<path d="M98.8353 72.744C93.9993 72.744 90.2587 71.2767 87.6133 68.342C85.0093 65.4073 83.7073 61.3567 83.7073 56.19C83.7073 52.594 84.348 49.5147 85.6293 46.952C86.9107 44.348 88.7293 42.364 91.0853 41C93.4413 39.636 96.19 38.954 99.3313 38.954C104.002 38.954 107.577 40.442 110.057 43.418C112.579 46.394 113.777 50.6307 113.653 56.128L94.8053 59.6C95.384 61.336 96.19 62.6173 97.2233 63.444C98.298 64.2293 99.7033 64.622 101.439 64.622C102.638 64.622 104.064 64.4567 105.717 64.126C107.371 63.754 109.045 63.258 110.739 62.638L112.165 68.776C110.636 69.9333 108.652 70.884 106.213 71.628C103.775 72.372 101.315 72.744 98.8353 72.744ZM103.485 50.92C103.403 49.3493 102.948 48.2127 102.121 47.51C101.336 46.766 100.22 46.394 98.7733 46.394C97.5747 46.394 96.438 46.5593 95.3633 46.89C94.4953 48.9153 94.1027 51.106 94.1853 53.462L103.485 50.92Z" fill="#41E170"/>
<path d="M115.448 66.296L119.788 64.994V35.296C119.788 34.3867 119.706 33.808 119.54 33.56C119.416 33.2707 119.065 32.9607 118.486 32.63L115.758 31.204L116.068 26.492C116.895 26.3267 117.536 26.2233 117.99 26.182C123.446 25.19 127.249 24.6527 129.398 24.57C129.812 25.5207 130.08 26.5953 130.204 27.794V62.948C130.204 63.816 130.266 64.3947 130.39 64.684C130.514 64.9733 130.866 65.2833 131.444 65.614L134.482 67.35L134.234 72H115.634L115.448 66.296Z" fill="#41E170"/>
<path d="M136.764 65.676L141.29 64.436V40.69C141.29 39.6153 141.207 38.9127 141.042 38.582C140.877 38.21 140.443 37.8793 139.74 37.59L136.64 35.792L136.826 30.212H170.492C170.781 34.552 170.926 38.7887 170.926 42.922L166.338 43.232L161.936 37.776L152.574 37.528V47.634L165.78 46.518V56.066L152.574 54.64V64.622L162.866 64.436L167.64 58.98L172.228 59.29C172.063 63.63 171.753 67.8667 171.298 72H137.074L136.764 65.676Z" fill="#41E170"/>
<path d="M191.541 79.812L196.935 78.386V71.814C194.538 72.4753 192.368 72.806 190.425 72.806C185.589 72.806 181.973 71.38 179.575 68.528C177.219 65.676 176.041 61.5633 176.041 56.19C176.041 50.61 177.571 46.3527 180.629 43.418C183.688 40.442 188.111 38.954 193.897 38.954C196.336 38.954 198.754 39.202 201.151 39.698C203.549 40.194 205.615 40.8347 207.351 41.62V76.278C207.351 77.1873 207.413 77.7867 207.537 78.076C207.661 78.3653 208.033 78.6547 208.653 78.944L210.575 80.06L210.327 85.33H191.727L191.541 79.812ZM192.223 65.118C192.926 65.118 193.608 65.0353 194.269 64.87C194.972 64.6633 195.84 64.3327 196.873 63.878V47.758C195.509 47.138 193.815 46.828 191.789 46.828C190.136 46.828 188.751 47.0347 187.635 47.448C187.305 48.192 187.036 49.246 186.829 50.61C186.623 51.974 186.519 53.462 186.519 55.074C186.519 58.3393 187.015 60.84 188.007 62.576C188.999 64.2707 190.405 65.118 192.223 65.118Z" fill="#41E170"/>
<path d="M224.756 72.868C221.45 72.868 218.99 71.8967 217.378 69.954C215.766 67.97 214.96 64.994 214.96 61.026V49.928C214.96 49.0187 214.878 48.44 214.712 48.192C214.588 47.9027 214.237 47.5927 213.658 47.262L210.868 45.774L211.178 41.124C211.757 41.0413 212.17 40.9587 212.418 40.876C212.873 40.7933 214.485 40.504 217.254 40.008C220.065 39.512 222.4 39.2227 224.26 39.14C224.715 40.1733 225.066 41.372 225.314 42.736V58.36C225.314 60.1787 225.356 61.46 225.438 62.204C225.562 62.948 225.893 63.5267 226.43 63.94C227.009 64.312 227.98 64.498 229.344 64.498C231.328 64.498 233.25 64.1467 235.11 63.444V49.928C235.11 49.0187 235.048 48.44 234.924 48.192C234.8 47.9027 234.47 47.5927 233.932 47.262L231.204 45.774L231.452 41.124C234.8 40.504 237.404 40.0287 239.264 39.698C241.166 39.3673 242.902 39.1813 244.472 39.14C244.927 40.1733 245.278 41.372 245.526 42.736V63.072C245.526 63.816 245.588 64.3327 245.712 64.622C245.836 64.9113 246.126 65.2007 246.58 65.49L249.06 66.916L248.874 70.76C247.097 71.2147 245.051 71.628 242.736 72C240.422 72.3307 238.272 72.5373 236.288 72.62C236.123 72.124 235.937 71.504 235.73 70.76C235.689 70.4293 235.586 70.0367 235.42 69.582H235.234C233.54 70.574 231.742 71.38 229.84 72C227.98 72.5787 226.286 72.868 224.756 72.868Z" fill="#41E170"/>
<path d="M254.101 26.12L264.641 23.33L267.183 32.754L256.705 35.606L254.101 26.12ZM251.497 66.296L255.837 64.994V49.928C255.837 49.0187 255.755 48.44 255.589 48.192C255.465 47.9027 255.114 47.5927 254.535 47.262L251.807 45.774L252.117 41.124C255.548 40.4627 258.193 39.9873 260.053 39.698C261.955 39.3673 263.691 39.1813 265.261 39.14C265.799 40.9173 266.129 42.24 266.253 43.108V62.948C266.253 63.816 266.315 64.3947 266.439 64.684C266.563 64.9733 266.915 65.2833 267.493 65.614L270.531 67.35L270.283 72H251.683L251.497 66.296Z" fill="#41E170"/>
<path d="M271.62 79.44L275.464 78.386V49.928C275.464 49.0187 275.402 48.44 275.278 48.192C275.154 47.9027 274.803 47.5927 274.224 47.262L271.434 45.774L271.744 41.124C271.951 41.0827 272.157 41.0413 272.364 41C272.571 40.9587 272.798 40.9173 273.046 40.876C274.989 40.504 277.035 40.1527 279.184 39.822C281.375 39.45 283.173 39.2227 284.578 39.14C284.95 40.008 285.198 41 285.322 42.116C286.603 41.0827 287.967 40.2973 289.414 39.76C290.902 39.2227 292.369 38.954 293.816 38.954C297.949 38.954 301.111 40.4213 303.302 43.356C305.534 46.2493 306.65 50.3827 306.65 55.756C306.65 61.336 305.121 65.614 302.062 68.59C299.003 71.5247 294.581 72.992 288.794 72.992C288.174 72.992 287.203 72.9507 285.88 72.868V76.278C285.88 77.1873 285.942 77.7867 286.066 78.076C286.19 78.3653 286.541 78.6547 287.12 78.944L290.778 80.99L290.53 85.33H271.93L271.62 79.44ZM290.406 65.304C292.349 65.304 293.919 65.0353 295.118 64.498C295.449 63.4647 295.717 62.2247 295.924 60.778C296.172 59.29 296.296 57.9053 296.296 56.624C296.296 53.4413 295.738 50.982 294.622 49.246C293.547 47.51 292.039 46.642 290.096 46.642C288.897 46.642 287.492 46.9933 285.88 47.696V64.56C287.079 65.056 288.587 65.304 290.406 65.304Z" fill="#41E170"/>
<path d="M242 18H279V37H242V18Z" fill="#1B1C21"/>
<path d="M269.83 20.3257L267.384 20.3332C266.995 19.2324 266.407 18.2131 265.648 17.3265L266.877 15.2118C267.019 14.9698 266.971 14.6666 266.768 14.4752C265.409 13.2269 263.797 12.3186 262.069 11.786C261.804 11.705 261.512 11.8166 261.374 12.0561L260.144 14.1708C258.991 13.9571 257.808 13.9605 256.653 14.1819L255.439 12.079C255.301 11.8391 255.011 11.7264 254.744 11.812C252.958 12.3749 251.346 13.3286 250.033 14.532C249.825 14.7204 249.778 15.0274 249.917 15.2673L251.133 17.3745C250.371 18.2658 249.776 19.2886 249.378 20.3922L246.936 20.3972C246.656 20.3994 246.415 20.5899 246.355 20.8644C245.949 22.6232 245.93 24.4731 246.334 26.2786C246.394 26.5522 246.637 26.7433 246.918 26.7412L249.364 26.7337C249.752 27.8345 250.34 28.8538 251.1 29.7404L249.87 31.8551C249.728 32.0971 249.776 32.4003 249.979 32.5917C251.338 33.84 252.95 34.7483 254.678 35.2809C254.943 35.3619 255.236 35.2503 255.374 35.0108L256.603 32.8961C257.756 33.1098 258.939 33.1064 260.094 32.885L261.311 34.9922C261.449 35.2321 261.739 35.3448 262.006 35.2592C263.792 34.6963 265.404 33.7426 266.717 32.5392C266.924 32.3508 266.971 32.0438 266.833 31.804L265.616 29.6967C266.379 28.8054 266.973 27.7826 267.371 26.679L269.818 26.6715C270.098 26.6693 270.339 26.4789 270.399 26.2043C270.805 24.4455 270.824 22.5956 270.42 20.7901C270.349 20.5172 270.11 20.3236 269.83 20.3257ZM260.348 26.959C258.446 28.0574 256.009 27.414 254.919 25.5252C253.828 23.6364 254.489 21.2046 256.392 20.1062C258.295 19.0077 260.731 19.6511 261.822 21.5399C262.912 23.4287 262.251 25.8605 260.348 26.959Z" fill="#41E170"/>
</svg>
